<?xml version="1.0" encoding="UTF-8" standalone="no"?><!DOCTYPE svg PUBLIC "-//W3C//DTD SVG 1.1//EN" "http://www.w3.org/Graphics/SVG/1.1/DTD/svg11.dtd"><svg width="100%" height="100%" viewBox="0 0 3594 1659" version="1.1" xmlns="http://www.w3.org/2000/svg" xmlns:xlink="http://www.w3.org/1999/xlink" xml:space="preserve" xmlns:serif="http://www.serif.com/" style="fill-rule:evenodd;clip-rule:evenodd;stroke-linejoin:round;stroke-miterlimit:2;"><g><path id="b" d="M30.35,677.542l294.767,294.833c78.112,78.132 184.181,122.075 294.662,122.075l45.959,0c110.481,0 216.549,43.943 294.662,122.075l315.492,315.567c78.112,78.132 184.181,122.074 294.662,122.075l923.629,-0c114.613,-0 207.521,-92.913 207.521,-207.521c0,-55.008 -21.871,-107.82 -60.762,-146.721l-220.146,-220.2c-30.663,-30.667 -30.654,-80.392 0.012,-111.054c14.721,-14.717 34.706,-22.993 55.521,-22.992c43.367,0 78.525,-35.158 78.525,-78.525c0,-20.821 -8.271,-40.791 -22.991,-55.521l-450.317,-450.42c-78.114,-78.133 -184.184,-122.076 -294.667,-122.075l-466.725,-0c-108.213,-0.001 -212.103,-43.041 -288.612,-119.567c-76.511,-76.53 -180.405,-119.572 -288.621,-119.571l-535.571,0c-80.979,0 -146.625,65.646 -146.625,146.625c0,38.866 15.454,76.181 42.933,103.667l73.317,73.329c40.479,40.487 40.471,106.125 -0.017,146.604c-19.432,19.428 -45.813,30.353 -73.291,30.354c-57.259,0 -103.667,46.417 -103.667,103.667c-0,27.477 10.924,53.858 30.35,73.292l0,0.004Z"/><path id="b1" serif:id="b" d="M30.35,677.542l294.767,294.833c78.112,78.132 184.181,122.075 294.662,122.075l45.959,0c110.481,0 216.549,43.943 294.662,122.075l315.492,315.567c78.112,78.132 184.181,122.074 294.662,122.075l923.629,-0c114.613,-0 207.521,-92.913 207.521,-207.521c0,-55.008 -21.871,-107.82 -60.762,-146.721l-220.146,-220.2c-30.663,-30.667 -30.654,-80.392 0.012,-111.054c14.721,-14.717 34.706,-22.993 55.521,-22.992c43.367,0 78.525,-35.158 78.525,-78.525c0,-20.821 -8.271,-40.791 -22.991,-55.521l-450.317,-450.42c-78.114,-78.133 -184.184,-122.076 -294.667,-122.075l-466.725,-0c-108.213,-0.001 -212.103,-43.041 -288.612,-119.567c-76.511,-76.53 -180.405,-119.572 -288.621,-119.571l-535.571,0c-80.979,0 -146.625,65.646 -146.625,146.625c0,38.866 15.454,76.181 42.933,103.667l73.317,73.329c40.479,40.487 40.471,106.125 -0.017,146.604c-19.432,19.428 -45.813,30.353 -73.291,30.354c-57.259,0 -103.667,46.417 -103.667,103.667c-0,27.477 10.924,53.858 30.35,73.292l0,0.004Z" style="fill:#2d314d;"/><path d="M922.017,681.708l294.766,294.834c78.113,78.132 184.181,122.074 294.663,122.075l45.958,-0c110.482,0 216.55,43.943 294.663,122.075l315.491,315.566c78.113,78.132 184.181,122.075 294.663,122.075l923.629,0c114.613,0 207.521,-92.912 207.521,-207.52c-0,-55.008 -21.871,-107.82 -60.763,-146.721l-220.145,-220.2c-30.663,-30.667 -30.655,-80.392 0.012,-111.054c14.721,-14.717 34.705,-22.993 55.521,-22.992c43.367,-0 78.525,-35.158 78.525,-78.525c-0,-20.821 -8.271,-40.792 -22.992,-55.521l-450.316,-450.421c-78.114,-78.133 -184.184,-122.076 -294.667,-122.075l-466.725,0c-108.213,-0 -212.103,-43.04 -288.613,-119.566c-76.511,-76.531 -180.404,-119.572 -288.62,-119.571l-535.571,-0c-80.979,-0 -146.625,65.646 -146.625,146.625c-0,38.866 15.454,76.181 42.933,103.666l73.313,73.33c40.479,40.487 40.47,106.125 -0.017,146.604c-19.433,19.427 -45.814,30.353 -73.292,30.354c-57.258,-0 -103.666,46.417 -103.666,103.667c-0.001,27.477 10.923,53.858 30.35,73.291l0.004,0.004Z" style="fill:url(#_Linear1);"/></g><defs><linearGradient id="_Linear1" x1="0" y1="0" x2="1" y2="0" gradientUnits="userSpaceOnUse" gradientTransform="matrix(2690.36,456.649,-456.649,2690.36,891.663,601.966)"><stop offset="0" style="stop-color:#33d35e;stop-opacity:1"/><stop offset="1" style="stop-color:#2ab6d9;stop-opacity:1"/></linearGradient></defs></svg>