<?xml version="1.0" encoding="UTF-8" standalone="no"?><!DOCTYPE svg PUBLIC "-//W3C//DTD SVG 1.1//EN" "http://www.w3.org/Graphics/SVG/1.1/DTD/svg11.dtd"><svg width="100%" height="100%" viewBox="0 0 4994 3984" version="1.1" xmlns="http://www.w3.org/2000/svg" xmlns:xlink="http://www.w3.org/1999/xlink" xml:space="preserve" xmlns:serif="http://www.serif.com/" style="fill-rule:evenodd;clip-rule:evenodd;stroke-linejoin:round;stroke-miterlimit:2;"><g><path id="b" d="M49.646,2386.83l559.521,559.467c78.109,78.102 184.158,122.026 294.616,122.025l294.555,-0c110.459,0 216.507,43.925 294.616,122.029l671,670.946c78.105,78.102 184.149,122.029 294.604,122.033l1620.22,0c187.35,0 339.229,-151.875 339.229,-339.225c-0.001,-89.937 -35.768,-176.282 -99.366,-239.875l-359.967,-359.941c-50.137,-50.134 -50.142,-131.417 -0.008,-181.559c24.067,-24.068 56.746,-37.604 90.783,-37.604c70.904,0 128.383,-57.479 128.383,-128.383c0,-34.05 -13.525,-66.709 -37.604,-90.784l-813.896,-813.837c-78.109,-78.104 -184.157,-122.029 -294.616,-122.029l-976.842,-0c-110.459,-0.001 -216.508,-43.925 -294.617,-122.029l-146.887,-146.875c-78.109,-78.102 -184.155,-122.025 -294.613,-122.025l-979.8,-0c-132.37,-0 -239.679,107.308 -239.679,239.679c0.001,63.545 25.273,124.552 70.209,169.483l119.837,119.833c66.192,66.184 66.196,173.5 0.013,239.688c-31.773,31.776 -74.915,49.646 -119.85,49.646c-93.605,-0 -169.488,75.879 -169.488,169.483c-0,44.936 17.87,88.077 49.646,119.85l-0,0.004Z"/><path id="b1" serif:id="b" d="M49.646,2386.83l559.521,559.467c78.109,78.102 184.158,122.026 294.616,122.025l294.555,-0c110.459,0 216.507,43.925 294.616,122.029l671,670.946c78.105,78.102 184.149,122.029 294.604,122.033l1620.22,0c187.35,0 339.229,-151.875 339.229,-339.225c-0.001,-89.937 -35.768,-176.282 -99.366,-239.875l-359.967,-359.941c-50.137,-50.134 -50.142,-131.417 -0.008,-181.559c24.067,-24.068 56.746,-37.604 90.783,-37.604c70.904,0 128.383,-57.479 128.383,-128.383c0,-34.05 -13.525,-66.709 -37.604,-90.784l-813.896,-813.837c-78.109,-78.104 -184.157,-122.029 -294.616,-122.029l-976.842,-0c-110.459,-0.001 -216.508,-43.925 -294.617,-122.029l-146.887,-146.875c-78.109,-78.102 -184.155,-122.025 -294.613,-122.025l-979.8,-0c-132.37,-0 -239.679,107.308 -239.679,239.679c0.001,63.545 25.273,124.552 70.209,169.483l119.837,119.833c66.192,66.184 66.196,173.5 0.013,239.688c-31.773,31.776 -74.915,49.646 -119.85,49.646c-93.605,-0 -169.488,75.879 -169.488,169.483c-0,44.936 17.87,88.077 49.646,119.85l-0,0.004Z" style="fill:#2d314d;"/><path d="M624.646,1107.67l559.521,559.466c78.109,78.103 184.158,122.026 294.616,122.025l294.555,0c110.459,0.001 216.507,43.926 294.616,122.03l671,670.945c78.105,78.103 184.149,122.029 294.604,122.034l1620.22,-0c187.35,-0 339.229,-151.875 339.229,-339.225c-0.001,-89.938 -35.768,-176.283 -99.366,-239.875l-359.967,-359.942c-50.137,-50.133 -50.142,-131.417 -0.008,-181.558c24.067,-24.069 56.746,-37.605 90.783,-37.604c70.904,-0 128.383,-57.48 128.383,-128.384c0,-34.05 -13.525,-66.708 -37.604,-90.783l-813.896,-813.838c-78.109,-78.104 -184.157,-122.028 -294.616,-122.029l-976.842,0c-110.459,-0 -216.508,-43.925 -294.617,-122.029l-146.887,-146.875c-78.109,-78.101 -184.155,-122.025 -294.613,-122.025l-979.8,-0c-132.37,-0 -239.679,107.308 -239.679,239.679c0.001,63.545 25.273,124.552 70.209,169.484l119.837,119.833c66.192,66.183 66.196,173.5 0.013,239.687c-31.773,31.776 -74.915,49.647 -119.85,49.646c-93.605,0 -169.488,75.879 -169.488,169.483c-0,44.936 17.87,88.078 49.646,119.851l-0,0.004Z" style="fill:url(#_Linear1);"/></g><defs><linearGradient id="_Linear1" x1="0" y1="0" x2="1" y2="0" gradientUnits="userSpaceOnUse" gradientTransform="matrix(4399.45,746.053,-746.053,4399.45,575,977.475)"><stop offset="0" style="stop-color:#33d35e;stop-opacity:1"/><stop offset="1" style="stop-color:#2ab6d9;stop-opacity:1"/></linearGradient></defs></svg>