<?xml version="1.0" encoding="UTF-8" standalone="no"?>
<!DOCTYPE svg PUBLIC "-//W3C//DTD SVG 1.1//EN" "http://www.w3.org/Graphics/SVG/1.1/DTD/svg11.dtd">
<svg width="100%" height="100%" viewBox="0 0 20 20" version="1.1" xmlns="http://www.w3.org/2000/svg" xmlns:xlink="http://www.w3.org/1999/xlink" xml:space="preserve" xmlns:serif="http://www.serif.com/" style="fill-rule:evenodd;clip-rule:evenodd;stroke-linejoin:round;stroke-miterlimit:2;">
    <path d="M18.896,0L1.104,0C0.494,0 0,0.494 0,1.104L0,18.897C0,19.506 0.494,20 1.104,20L10.684,20L10.684,12.255L8.076,12.255L8.076,9.237L10.682,9.237L10.682,7.01C10.682,4.427 12.26,3.02 14.565,3.02C15.669,3.02 16.617,3.102 16.894,3.139L16.894,5.839L15.296,5.839C14.042,5.839 13.8,6.436 13.8,7.309L13.8,9.237L16.789,9.237L16.399,12.255L13.799,12.255L13.799,20L18.897,20C19.505,20 19.999,19.506 19.999,18.896L19.999,1.104C20,0.494 19.506,0 18.896,0Z" style="fill:white;fill-rule:nonzero;"/>
</svg>
