<?xml version="1.0" encoding="UTF-8" standalone="no"?>
<!DOCTYPE svg PUBLIC "-//W3C//DTD SVG 1.1//EN" "http://www.w3.org/Graphics/SVG/1.1/DTD/svg11.dtd">
<svg width="100%" height="100%" viewBox="0 0 21 20" version="1.1" xmlns="http://www.w3.org/2000/svg" xmlns:xlink="http://www.w3.org/1999/xlink" xml:space="preserve" xmlns:serif="http://www.serif.com/" style="fill-rule:evenodd;clip-rule:evenodd;stroke-linejoin:round;stroke-miterlimit:2;">
    <path d="M10.333,0C4.811,0 0.333,4.478 0.333,10C0.333,15.523 4.811,20 10.333,20C15.856,20 20.333,15.523 20.333,10C20.333,4.478 15.856,0 10.333,0ZM14.034,14.077C12.282,14.197 8.381,14.197 6.632,14.077C4.735,13.947 4.514,13.018 4.5,10C4.514,6.976 4.737,6.053 6.632,5.923C8.381,5.803 12.283,5.803 14.034,5.923C15.932,6.053 16.152,6.982 16.167,10C16.152,13.024 15.929,13.947 14.034,14.077ZM8.667,8.048L12.764,9.997L8.667,11.952L8.667,8.048Z" style="fill:white;fill-rule:nonzero;"/>
</svg>
