<?xml version="1.0" encoding="UTF-8" standalone="no"?>
<!DOCTYPE svg PUBLIC "-//W3C//DTD SVG 1.1//EN" "http://www.w3.org/Graphics/SVG/1.1/DTD/svg11.dtd">
<svg width="100%" height="100%" viewBox="0 0 72 72" version="1.1" xmlns="http://www.w3.org/2000/svg" xmlns:xlink="http://www.w3.org/1999/xlink" xml:space="preserve" xmlns:serif="http://www.serif.com/" style="fill-rule:evenodd;clip-rule:evenodd;stroke-linejoin:round;stroke-miterlimit:2;">
    <g>
        <circle cx="36" cy="36" r="36" style="fill:url(#_Linear1);"/>
        <path d="M45.984,16C47.811,16.002 49.314,17.505 49.316,19.332L49.316,23.059L53.426,27.177C55.054,28.806 55.973,31.015 55.979,33.318L55.979,55.312C55.979,55.312 55.979,55.313 55.979,55.313C55.979,55.678 55.678,55.979 55.313,55.979C55.313,55.979 55.312,55.979 55.312,55.979L43.32,55.979C43.32,55.979 43.319,55.979 43.319,55.979C42.954,55.979 42.653,55.678 42.653,55.313C42.653,55.313 42.653,55.312 42.653,55.312L42.653,48.84L42.271,48.228C40.669,45.667 40.361,42.496 41.441,39.675L25.799,45.7C24.094,46.357 22.15,45.495 21.492,43.79L18.988,37.288C17.303,37.116 16.005,35.684 16,33.99L16,19.332C16.002,17.505 17.505,16.002 19.332,16L45.984,16ZM54.646,49.316L43.986,49.316L43.986,54.646L54.646,54.646L54.646,49.316ZM46.65,50.648L46.65,51.981L45.318,51.981L45.318,50.648L46.65,50.648ZM50.325,25.958L52.58,31.813C53.236,33.518 52.374,35.46 50.67,36.118L49.987,36.384L52.452,38.85L51.51,39.792L40.892,29.177C40.475,28.759 39.909,28.524 39.319,28.524C38.1,28.524 37.097,29.527 37.097,30.746C37.097,31.303 37.306,31.84 37.683,32.25L43.143,38.207C43.339,38.42 43.375,38.737 43.231,38.987C41.712,41.642 41.777,44.929 43.4,47.521L43.689,47.983L54.646,47.983L54.646,33.318C54.641,31.368 53.863,29.498 52.484,28.12L50.325,25.957L50.325,25.958ZM40.527,37.318L29.565,37.318L29.565,37.322L21.612,40.387L22.736,43.31C23.032,44.08 23.776,44.591 24.601,44.591C24.847,44.591 25.091,44.545 25.32,44.457L41.393,38.262L40.527,37.318ZM25.869,37.322L20.429,37.322L21.131,39.146L25.869,37.322ZM45.984,17.332L19.332,17.332C18.235,17.332 17.332,18.235 17.332,19.332L17.332,33.99C17.332,35.087 18.235,35.99 19.332,35.99L39.306,35.99L36.704,33.147C36.125,32.496 35.804,31.655 35.804,30.783C35.804,28.833 37.409,27.228 39.359,27.228C40.283,27.228 41.171,27.588 41.834,28.231L47.938,34.336C47.963,34.222 47.978,34.106 47.983,33.99L47.983,23.582L47.977,23.567L47.983,23.567L47.983,19.332C47.983,18.235 47.081,17.333 45.984,17.332ZM49.316,27.043L49.316,33.99C49.315,34.449 49.219,34.903 49.034,35.323L50.19,34.877C50.96,34.581 51.471,33.837 51.471,33.011C51.471,32.766 51.426,32.522 51.338,32.293L49.316,27.043ZM21.996,31.325L21.996,32.658L19.332,32.658L19.332,31.325L21.997,31.325L21.996,31.325ZM33.99,31.325L33.99,32.658L31.325,32.658L31.325,31.325L33.99,31.325ZM21.997,27.327L21.997,28.66L19.332,28.66L19.332,27.327L21.997,27.327ZM25.995,27.327L25.995,28.66L23.329,28.66L23.329,27.327L25.995,27.327ZM29.993,27.327L29.993,28.66L27.327,28.66L27.327,27.327L29.993,27.327ZM33.99,27.327L33.99,28.66L31.325,28.66L31.325,27.327L33.99,27.327ZM23.596,18.665C24.553,18.665 25.328,19.441 25.328,20.398L25.328,23.596C25.328,24.553 24.553,25.328 23.596,25.328L20.397,25.328C19.447,25.328 18.665,24.546 18.665,23.596L18.665,20.398C18.665,19.441 19.441,18.665 20.398,18.665L23.596,18.665ZM23.596,19.998L20.398,19.998C20.179,19.998 19.998,20.179 19.998,20.398L19.998,21.33L21.33,21.33L21.33,22.663L19.998,22.663L19.998,23.596C19.998,23.816 20.177,23.996 20.398,23.996L23.596,23.996C23.815,23.996 23.996,23.815 23.996,23.596L23.996,22.663L22.663,22.663L22.663,21.33L23.996,21.33L23.996,20.398C23.996,20.179 23.815,19.998 23.596,19.998ZM45.318,19.332L45.318,21.33L43.985,21.33L43.985,19.332L45.318,19.332ZM42.652,19.332L42.652,21.33L41.32,21.33L41.32,19.332L42.652,19.332ZM39.987,19.332L39.987,21.33L38.655,21.33L38.655,19.332L39.987,19.332ZM37.322,19.332L37.322,21.33L35.989,21.33L35.989,19.332L37.322,19.332Z" style="fill:white;fill-rule:nonzero;"/>
    </g>
    <defs>
        <linearGradient id="_Linear1" x1="0" y1="0" x2="1" y2="0" gradientUnits="userSpaceOnUse" gradientTransform="matrix(71.6976,71.6976,-71.6976,71.6976,0,0)"><stop offset="0" style="stop-color:rgb(51,211,94);stop-opacity:1"/><stop offset="1" style="stop-color:rgb(42,182,217);stop-opacity:1"/></linearGradient>
    </defs>
</svg>
